<?xml version="1.0" encoding="UTF-8"?>
<!DOCTYPE svg PUBLIC "-//W3C//DTD SVG 1.1//EN" "http://www.w3.org/Graphics/SVG/1.1/DTD/svg11.dtd">
<svg xmlns="http://www.w3.org/2000/svg" version="1.1" width="878px" height="878px" style="shape-rendering:geometricPrecision; text-rendering:geometricPrecision; image-rendering:optimizeQuality; fill-rule:evenodd; clip-rule:evenodd" xmlns:xlink="http://www.w3.org/1999/xlink">
<g><path style="opacity:0.999" fill="#f3cf71" d="M 444.5,7.5 C 505.132,86.072 565.298,165.072 625,244.5C 694.937,319.368 717.271,406.701 692,506.5C 663.329,595.837 604.496,655.337 515.5,685C 419.666,710.702 334.332,691.369 259.5,627C 189.66,559.142 162.826,476.975 179,380.5C 189.673,328.141 213.673,283.141 251,245.5C 255.717,239.623 260.217,233.623 264.5,227.5C 265.239,227.631 265.906,227.464 266.5,227C 293.133,192.218 319.633,157.385 346,122.5C 346.483,121.552 346.649,120.552 346.5,119.5C 361.481,99.1912 376.815,79.1912 392.5,59.5C 398.176,53.9871 403.342,47.9871 408,41.5C 416.915,27.5949 426.915,14.5949 438,2.5C 439.845,3.95208 441.345,5.78541 442.5,8C 443.437,8.69169 444.103,8.52502 444.5,7.5 Z M 422.5,296.5 C 493.524,293.734 543.024,324.734 571,389.5C 589.089,447.751 576.922,498.584 534.5,542C 494.276,576.887 448.276,587.554 396.5,574C 348.239,558.072 316.405,525.905 301,477.5C 286.771,418.199 302.271,368.366 347.5,328C 369.719,310.764 394.719,300.264 422.5,296.5 Z"/></g>
<g><path style="opacity:0.196" fill="#e5de90" d="M 437.5,-0.5 C 437.833,-0.5 438.167,-0.5 438.5,-0.5C 440.853,1.85986 442.853,4.52653 444.5,7.5C 444.103,8.52502 443.437,8.69169 442.5,8C 441.345,5.78541 439.845,3.95208 438,2.5C 426.915,14.5949 416.915,27.5949 408,41.5C 403.342,47.9871 398.176,53.9871 392.5,59.5C 407.016,39.1336 422.016,19.1336 437.5,-0.5 Z"/></g>
<g><path style="opacity:0.329" fill="#e6de90" d="M 346.5,119.5 C 346.649,120.552 346.483,121.552 346,122.5C 319.633,157.385 293.133,192.218 266.5,227C 265.906,227.464 265.239,227.631 264.5,227.5C 291.481,191.192 318.814,155.192 346.5,119.5 Z"/></g>
</svg>
